# xmcd CD database file generated by Grip 3.2.0
# 
# Track frame offsets:
#       150
#       17360
#       36850
#       60462
#       77937
#       98662
#       120982
#       138985
#       158947
#       179125
#       199292
#       220365
#       240777
#       261700
#       279980
# 
# Disc length: 4008 seconds
# 
# Revision: 2
# Processed by: cddbd v1.5.2PL0 Copyright (c) Steve Scherf et al.
# Submitted via: Grip 3.2.0
# 
DISCID=d10fa60f
DTITLE=Roxette - The Ballad Hits
DYEAR=2002
DGENRE=Ballad
TTITLE0=A Thing About You
TTITLE1=It Must Have Been Love
TTITLE2=Listen To Your Heart
TTITLE3=Fading Like A Flower
TTITLE4=Spending My Time
TTITLE5=Queen Of Rain
TTITLE6=Almost Unreal
TTITLE7=Crash! Boom! Bang!
TTITLE8=Vulnerable
TTITLE9=You Don't Understand Me
TTITLE10=Wish I Could Fly
TTITLE11=Anyone
TTITLE12=Salvation
TTITLE13=Milk And Toast And Honey
TTITLE14=Breathe
EXTD=
EXTT0=
EXTT1=
EXTT2=
EXTT3=
EXTT4=
EXTT5=
EXTT6=
EXTT7=
EXTT8=
EXTT9=
EXTT10=
EXTT11=
EXTT12=
EXTT13=
EXTT14=
PLAYORDER=
